<svg width="11" height="8" viewBox="0 0 11 8" fill="none" xmlns="http://www.w3.org/2000/svg">
<path d="M0.631936 4.35659C0.563843 4.24877 0.529796 4.19486 0.510737 4.11171C0.496421 4.04925 0.496421 3.95075 0.510737 3.88829C0.529796 3.80514 0.563843 3.75123 0.631936 3.64341C1.19464 2.75242 2.86957 0.5 5.42208 0.5C7.97458 0.5 9.64951 2.75242 10.2122 3.64341C10.2803 3.75123 10.3144 3.80514 10.3334 3.88829C10.3477 3.95075 10.3477 4.04925 10.3334 4.11171C10.3144 4.19486 10.2803 4.24877 10.2122 4.35659C9.64951 5.24758 7.97458 7.5 5.42208 7.5C2.86958 7.5 1.19464 5.24758 0.631936 4.35659Z" stroke="#4C5C59" stroke-linecap="round" stroke-linejoin="round"/>
<path d="M5.42208 5.5C6.2505 5.5 6.92208 4.82843 6.92208 4C6.92208 3.17157 6.2505 2.5 5.42208 2.5C4.59365 2.5 3.92208 3.17157 3.92208 4C3.92208 4.82843 4.59365 5.5 5.42208 5.5Z" stroke="#4C5C59" stroke-linecap="round" stroke-linejoin="round"/>
</svg>
